<svg height="100" viewBox="0 0 100 100" width="100" xmlns="http://www.w3.org/2000/svg" xmlns:xlink="http://www.w3.org/1999/xlink"><defs><path id="a" d="m0 0h100v100h-100z"/><mask id="b" fill="#fff" height="100" width="100" x="0" y="0"><use xlink:href="#a"/></mask></defs><g fill="none" fill-rule="evenodd"><path d="m45 57v16.0500091c-1.1411202.2316351-2 1.2405119-2 2.4499909 0 1.3807119 1.1192881 2.5 2.5 2.5s2.5-1.1192881 2.5-2.5c0-1.209479-.8588798-2.2183558-2-2.4499909v-16.1500272c1.5414925-.3129065 2.8254661-1.3349761 3.4965559-2.7108439l18.5789906 8.6984882c-.0493399.1959548-.0755465.4011039-.0755465.6123738 0 1.3807119 1.1192881 2.5 2.5 2.5s2.5-1.1192881 2.5-2.5-1.1192881-2.5-2.5-2.5c-.8119552 0-1.5335033.3870793-1.9901801.986774l-18.6666352-8.7395225c.1023746-.3986973.1568153-.8166167.1568153-1.2472515 0-1.4454702-.6133722-2.7476797-1.5940362-3.6605481l16.7942727-20.7034687c.3787353.2309572.8237105.3640168 1.2997635.3640168 1.3807119 0 2.5-1.1192881 2.5-2.5s-1.1192881-2.5-2.5-2.5-2.5 1.1192881-2.5 2.5c0 .5422521.1726387 1.0441823.465951 1.4538252l-16.8565516 20.7802443c-.7596057-.4656312-1.653154-.7340695-2.6093994-.7340695-.8746157 0-1.6967817.2245641-2.4119848.6191792l-7.0520827-9.667988c.2921677-.4091597.4640675-.9101008.4640675-1.4511912 0-1.3807119-1.1192881-2.5-2.5-2.5s-2.5 1.1192881-2.5 2.5 1.1192881 2.5 2.5 2.5c.4754466 0 .9198946-.1327209 1.2983159-.3631347l6.9665217 9.5506889c-1.0797286.9171399-1.7648376 2.2847849-1.7648376 3.8124458 0 .6919656.1405642 1.3511007.3946965 1.9504091l-9.4999445 8.4745134c-.3984083-.2683159-.8782914-.4249225-1.394752-.4249225-1.3807119 0-2.5 1.1192881-2.5 2.5s1.1192881 2.5 2.5 2.5 2.5-1.1192881 2.5-2.5c0-.5021836-.1480679-.9697841-.4029277-1.3615256l9.2931027-8.2899982c.902875 1.3002309 2.4069349 2.1515238 4.109825 2.1515238z" fill="#f8ad0d"/><use mask="url(#b)" stroke="#f8ad0d" stroke-width="4" xlink:href="#a"/></g></svg>