<svg width="100" height="100" viewBox="0 0 100 100" fill="none" xmlns="http://www.w3.org/2000/svg">
<g clip-path="url(#clip0_96_782)">
<mask id="mask0_96_782" style="mask-type:luminance" maskUnits="userSpaceOnUse" x="0" y="0" width="100" height="100">
<path d="M0 0H100V100H0V0Z" fill="white"/>
</mask>
<g mask="url(#mask0_96_782)">
<path d="M0 0H100V100H0V0Z" stroke="#AEF022" stroke-width="4"/>
</g>
<path d="M28.9258 30.9907C28.9258 29.8862 29.8212 28.9907 30.9258 28.9907H50.9364C52.0409 28.9907 52.9364 29.8862 52.9364 30.9907V51.0013C52.9364 52.1059 52.0409 53.0013 50.9364 53.0013H30.9258C29.8212 53.0013 28.9258 52.1059 28.9258 51.0013V30.9907Z" stroke="#AEF022" stroke-width="2"/>
<path d="M52.5615 34.9934L56.9393 34.9934C58.0439 34.9934 58.9393 35.8888 58.9393 36.9934V57.004C58.9393 58.1086 58.0439 59.004 56.9393 59.004H36.9287C35.8241 59.004 34.9287 58.1086 34.9287 57.004V52.6262" stroke="#AEF022" stroke-width="2"/>
<path d="M58.6196 40.9961H62.9974C64.102 40.9961 64.9974 41.8915 64.9974 42.9961V63.0067C64.9974 64.1112 64.102 65.0067 62.9974 65.0067H42.9868C41.8822 65.0067 40.9868 64.1113 40.9868 63.0067V58.6289" stroke="#AEF022" stroke-width="2"/>
<path d="M64.9972 46.9987H68.9998C70.1044 46.9987 70.9998 47.8941 70.9998 48.9987V69.0092C70.9998 70.1138 70.1044 71.0092 68.9998 71.0092H48.9893C47.8847 71.0092 46.9893 70.1138 46.9893 69.0092V64.6314" stroke="#AEF022" stroke-width="2"/>
</g>
<defs>
<clipPath id="clip0_96_782">
<rect width="100" height="100" fill="white"/>
</clipPath>
</defs>
</svg>
