<svg height="100" viewBox="0 0 100 100" width="100" xmlns="http://www.w3.org/2000/svg" xmlns:xlink="http://www.w3.org/1999/xlink"><defs><path id="a" d="m.074219 0h100v100h-100z"/><mask id="b" fill="#fff" height="100" width="100" x="0" y="0"><use xlink:href="#a"/></mask></defs><g fill="none" fill-rule="evenodd"><use mask="url(#b)" stroke="#f02233" stroke-width="4" xlink:href="#a"/><path d="m65.75 41.5h-6.75l-1.125-3.2871094c-.2109375-.6679687-.9667969-1.2128906-1.6171875-1.2128906h-12.515625c-.703125 0-1.40625.5449219-1.6523437 1.2128906l-1.0898438 3.2871094h-6.75c-1.2480469 0-2.25 1.0019531-2.25 2.25v18c0 1.2480469 1.0019531 2.25 2.25 2.25h31.5c1.2480469 0 2.25-1.0019531 2.25-2.25v-18c0-1.2480469-1.0019531-2.25-2.25-2.25zm-15.75 18c-3.7441406 0-6.75-3.0058594-6.75-6.75 0-3.7089844 3.0058594-6.75 6.75-6.75 3.7089844 0 6.75 3.0410156 6.75 6.75 0 3.7441406-3.0410156 6.75-6.75 6.75z" fill="#f02233"/></g></svg>