<svg height="100" viewBox="0 0 100 100" width="100" xmlns="http://www.w3.org/2000/svg" xmlns:xlink="http://www.w3.org/1999/xlink"><defs><path id="a" d="m.074219 0h100v100h-100z"/><mask id="b" fill="#fff" height="100" width="100" x="0" y="0"><use xlink:href="#a"/></mask></defs><g fill="none" fill-rule="evenodd"><use mask="url(#b)" stroke="#72564a" stroke-width="4" xlink:href="#a"/><path d="m32 49.5c0-1.1281146.9078976-2.0426322 2.0386634-2.0426322h31.9226732c1.1259227 0 2.0386634.9066526 2.0386634 2.0426322 0 1.1281146-.9078976 2.0426322-2.0386634 2.0426322h-31.9226732c-1.1259227 0-2.0386634-.9066526-2.0386634-2.0426322zm0-6.5364231c0-1.1281147.9078976-2.0426323 2.0386634-2.0426323h31.9226732c1.1259227 0 2.0386634.9066526 2.0386634 2.0426323 0 1.1281146-.9078976 2.0426322-2.0386634 2.0426322h-31.9226732c-1.1259227 0-2.0386634-.9066526-2.0386634-2.0426322zm0-6.5364232c0-1.1281146.9078976-2.0426322 2.0386634-2.0426322h31.9226732c1.1259227 0 2.0386634.9066526 2.0386634 2.0426322 0 1.1281146-.9078976 2.0426322-2.0386634 2.0426322h-31.9226732c-1.1259227 0-2.0386634-.9066525-2.0386634-2.0426322zm0 19.6092694c0-1.1281146.9078976-2.0426322 2.0386634-2.0426322h31.9226732c1.1259227 0 2.0386634.9066526 2.0386634 2.0426322 0 1.1281147-.9078976 2.0426323-2.0386634 2.0426323h-31.9226732c-1.1259227 0-2.0386634-.9066526-2.0386634-2.0426323zm0 6.5364232c0-1.1281146.9078976-2.0426322 2.0386634-2.0426322h31.9226732c1.1259227 0 2.0386634.9066525 2.0386634 2.0426322 0 1.1281146-.9078976 2.0426322-2.0386634 2.0426322h-31.9226732c-1.1259227 0-2.0386634-.9066526-2.0386634-2.0426322z" fill="#72564a"/></g></svg>