<svg height="100" viewBox="0 0 100 100" width="100" xmlns="http://www.w3.org/2000/svg" xmlns:xlink="http://www.w3.org/1999/xlink"><defs><path id="a" d="m0 0h100v100h-100z"/><mask id="b" fill="#fff" height="100" width="100" x="0" y="0"><use xlink:href="#a"/></mask></defs><g fill="none" fill-rule="evenodd"><use mask="url(#b)" stroke="#55acee" stroke-width="4" xlink:href="#a"/><path d="m68 37.4453125c-1.3359375.5976563-2.7421875 1.0019531-4.2539062 1.1777344 1.546875-.9140625 2.7070312-2.3730469 3.2519531-4.0957031-1.40625.84375-3.0058594 1.4589843-4.6582031 1.7929687-1.3886719-1.40625-3.3046876-2.3203125-5.4316407-2.3203125-4.078125 0-7.3652343 3.2871094-7.3652343 7.3652344 0 .5800781.0351562 1.1777344.1582031 1.7050781-6.1171875-.3339844-11.53125-3.1113281-15.2050781-7.5761719-.6152344 1.0898438-1.0019532 2.2148438-1.0019532 3.5859375 0 2.53125 1.3007813 4.78125 3.3046875 6.1171875-1.2128906-.0351562-2.3378906-.3691406-3.3398437-.9140625v.0878907c0 3.5859374 2.5488281 6.5742187 5.9238281 7.2421874-.6328125.1757813-1.3007813.2636719-1.96875.2636719-.4570313 0-.9140625-.0527343-1.3710937-.140625.9140624 2.9179688 3.6738281 5.0976563 6.8730468 5.1328125-2.4960937 2.0039063-5.7128906 3.4980469-9.1582031 3.4980469-.5976563 0-1.1777344-.0351563-1.7578125-.1230469 3.2519531 2.0917969 7.171875 3.0058594 11.3378906 3.0058594 13.5703125 0 20.9882813-11.25 20.9882813-21.0058594v-.9667968c1.4238281-1.0371094 2.671875-2.3203126 3.6738281-3.8320313z" fill="#55acee"/></g></svg>